<?xml version="1.0" standalone="no"?>
<!DOCTYPE svg PUBLIC "-//W3C//DTD SVG 20010904//EN"
 "http://www.w3.org/TR/2001/REC-SVG-20010904/DTD/svg10.dtd">
<svg version="1.0" xmlns="http://www.w3.org/2000/svg"
 width="500.000000pt" height="500.000000pt" viewBox="0 0 500.000000 500.000000"
 preserveAspectRatio="xMidYMid meet">

<g transform="translate(0.000000,500.000000) scale(0.100000,-0.100000)"
fill="#000000" stroke="none">
<path d="M1555 3432 c-11 -2 -30 -13 -42 -25 l-23 -20 0 -471 c1 -497 0 -489
47 -514 37 -20 163 -15 200 8 l33 19 2 183 3 183 68 3 67 3 0 119 0 120 -70 0
-70 0 0 175 c0 221 3 216 -135 220 -33 1 -69 0 -80 -3z"/>
<path d="M3268 3422 c-42 -22 -45 -37 -47 -229 l-1 -153 -50 0 c-32 0 -52 -5
-54 -12 -13 -49 -43 -130 -63 -170 -12 -26 -23 -51 -23 -55 0 -4 33 -7 72 -6
126 5 118 15 118 -150 0 -188 5 -214 44 -238 42 -26 171 -27 202 -1 43 35 44
42 44 509 0 429 -1 449 -20 481 -12 20 -28 32 -42 33 -128 7 -148 6 -180 -9z"/>
<path d="M1306 3228 c-11 -16 -16 -46 -16 -105 l0 -83 -35 0 c-53 0 -77 -43
-73 -132 4 -76 22 -104 73 -114 l33 -6 4 -88 c1 -49 8 -94 14 -100 20 -20 82
-24 109 -6 l25 16 0 308 c0 226 -3 311 -12 320 -7 7 -33 12 -59 12 -38 0 -51
-5 -63 -22z"/>
<path d="M3566 3228 c-14 -19 -16 -66 -16 -313 0 -218 3 -296 13 -308 18 -26
81 -33 112 -13 24 16 25 21 25 105 l0 88 36 6 c63 10 74 29 74 123 0 73 -3 86
-22 104 -13 12 -35 20 -55 20 l-33 0 0 89 c0 82 -2 91 -22 105 -34 24 -94 21
-112 -6z"/>
<path d="M995 1881 c-118 -30 -185 -130 -185 -272 0 -156 105 -266 257 -268
129 -2 227 90 240 225 l6 64 -117 0 -116 0 0 -40 0 -40 60 0 c68 0 73 -8 37
-61 -44 -65 -139 -73 -203 -17 -80 70 -75 240 9 300 44 31 138 30 172 -2 14
-13 27 -31 31 -42 4 -14 16 -18 60 -18 57 0 60 3 43 47 -14 38 -56 81 -104
105 -43 22 -141 32 -190 19z"/>
<path d="M2330 1835 l0 -45 80 0 80 0 0 -220 0 -220 50 0 50 0 0 220 0 220 80
0 80 0 0 45 0 45 -210 0 -210 0 0 -45z"/>
<path d="M3830 1615 l0 -265 50 0 50 0 0 58 c0 45 5 63 19 76 20 18 23 15 95
-91 28 -42 30 -43 87 -43 33 0 59 1 59 3 0 1 -23 34 -50 72 -28 39 -62 87 -76
107 l-26 37 21 27 c11 15 44 52 73 83 l52 56 -60 3 c-59 3 -59 3 -94 -40 -19
-23 -50 -58 -67 -78 l-32 -35 -1 148 0 147 -50 0 -50 0 0 -265z"/>
<path d="M1920 1739 c-14 -6 -35 -20 -47 -31 l-23 -21 0 26 c0 25 -3 27 -45
27 l-45 0 0 -195 0 -195 50 0 50 0 0 133 c1 91 5 137 13 149 20 26 63 33 92
14 25 -16 25 -18 25 -156 l0 -140 53 0 52 0 1 136 c0 130 1 138 23 155 28 23
60 24 87 5 17 -13 19 -29 22 -155 l4 -141 49 0 49 0 0 154 c0 142 -2 155 -23
187 -44 66 -142 76 -198 19 -28 -27 -28 -27 -46 -8 -39 44 -92 57 -143 37z"/>
<path d="M2915 1736 c-17 -7 -39 -21 -48 -30 -16 -16 -17 -16 -17 8 0 24 -3
26 -50 26 l-50 0 0 -195 0 -195 49 0 49 0 4 126 c3 124 3 126 31 150 18 15 41
24 63 24 l34 0 0 50 c0 56 -9 61 -65 36z"/>
<path d="M3115 1731 c-43 -20 -65 -41 -82 -83 -14 -32 -9 -38 33 -38 23 0 41
9 62 30 34 33 66 38 100 14 26 -18 29 -59 5 -68 -10 -4 -48 -11 -86 -16 -80
-10 -113 -29 -133 -77 -20 -46 -4 -94 40 -128 50 -38 139 -31 186 14 13 13 15
12 18 -7 3 -19 10 -22 48 -22 l44 0 0 155 0 154 -30 34 c-48 56 -133 71 -205
38z m125 -287 c-18 -20 -78 -34 -104 -24 -13 5 -26 18 -29 29 -9 35 22 60 83
69 l55 7 3 -33 c2 -18 -2 -40 -8 -48z"/>
<path d="M3537 1738 c-53 -14 -113 -75 -127 -129 -13 -46 -7 -127 12 -163 18
-36 62 -77 97 -92 45 -19 128 -17 171 4 37 18 80 74 80 103 0 28 -80 27 -98
-1 -29 -47 -113 -45 -147 3 -21 30 -20 121 2 158 30 50 123 52 145 4 10 -22
18 -25 60 -25 l48 0 -15 37 c-22 51 -43 72 -93 94 -48 21 -77 22 -135 7z"/>
<path d="M1336 1723 c8 -23 24 -64 35 -85 5 -10 9 -22 9 -28 0 -6 8 -29 19
-53 36 -80 81 -202 81 -218 0 -20 -41 -59 -63 -59 -14 0 -17 -10 -17 -46 l0
-47 42 6 c73 10 104 44 147 167 13 36 45 124 71 195 27 72 52 142 55 158 7 27
7 27 -43 27 l-51 0 -36 -117 c-20 -65 -39 -126 -42 -136 -3 -10 -7 -16 -10
-13 -3 3 -24 63 -47 133 l-42 128 -57 3 c-51 3 -56 1 -51 -15z"/>
</g>
</svg>
